<mxfile host="app.diagrams.net" modified="2022-11-14T09:56:14.010Z" agent="5.0 (Windows NT 10.0; Win64; x64) AppleWebKit/537.36 (KHTML, like Gecko) Chrome/104.0.5112.124 YaBrowser/22.9.5.716 Yowser/2.5 Safari/537.36" etag="wUAtfGblOw1BKVvuhKTo" version="20.5.3" type="github">
  <diagram id="PqFs-s4frjlMMcN66vEc" name="Страница 1">
    <mxGraphModel dx="990" dy="575" grid="1" gridSize="10" guides="1" tooltips="1" connect="1" arrows="1" fold="1" page="1" pageScale="1" pageWidth="827" pageHeight="1169" math="0" shadow="0">
      <root>
        <mxCell id="0" />
        <mxCell id="1" parent="0" />
        <mxCell id="1aqzLkErPg4qFdTffWpp-7" style="edgeStyle=orthogonalEdgeStyle;rounded=0;orthogonalLoop=1;jettySize=auto;html=1;exitX=0.5;exitY=1;exitDx=0;exitDy=0;entryX=0.5;entryY=0;entryDx=0;entryDy=0;" edge="1" parent="1" source="1aqzLkErPg4qFdTffWpp-1" target="1aqzLkErPg4qFdTffWpp-2">
          <mxGeometry relative="1" as="geometry" />
        </mxCell>
        <mxCell id="1aqzLkErPg4qFdTffWpp-1" value="&amp;nbsp;START" style="rounded=0;whiteSpace=wrap;html=1;" vertex="1" parent="1">
          <mxGeometry x="320" y="50" width="120" height="60" as="geometry" />
        </mxCell>
        <mxCell id="1aqzLkErPg4qFdTffWpp-2" value="string [] array 1&lt;br&gt;string [] array 2&lt;br&gt;int count = 0&amp;nbsp;" style="shape=parallelogram;perimeter=parallelogramPerimeter;whiteSpace=wrap;html=1;fixedSize=1;" vertex="1" parent="1">
          <mxGeometry x="285" y="160" width="190" height="80" as="geometry" />
        </mxCell>
        <mxCell id="1aqzLkErPg4qFdTffWpp-3" value="for (int i = 0;&lt;br&gt;i&amp;lt;array1.length;&lt;br&gt;i ++;" style="shape=hexagon;perimeter=hexagonPerimeter2;whiteSpace=wrap;html=1;fixedSize=1;" vertex="1" parent="1">
          <mxGeometry x="330" y="280" width="120" height="90" as="geometry" />
        </mxCell>
        <mxCell id="1aqzLkErPg4qFdTffWpp-4" value="if (array []1.length &amp;lt;=3)" style="rhombus;whiteSpace=wrap;html=1;" vertex="1" parent="1">
          <mxGeometry x="320" y="420" width="150" height="80" as="geometry" />
        </mxCell>
        <mxCell id="1aqzLkErPg4qFdTffWpp-5" value="array 2 [count] = array 1 [i];&lt;br&gt;count ++;" style="rounded=0;whiteSpace=wrap;html=1;" vertex="1" parent="1">
          <mxGeometry x="80" y="280" width="120" height="60" as="geometry" />
        </mxCell>
        <mxCell id="1aqzLkErPg4qFdTffWpp-6" value="" style="endArrow=classic;html=1;rounded=0;entryX=0.417;entryY=0.125;entryDx=0;entryDy=0;entryPerimeter=0;" edge="1" parent="1" target="1aqzLkErPg4qFdTffWpp-3">
          <mxGeometry width="50" height="50" relative="1" as="geometry">
            <mxPoint x="380" y="240" as="sourcePoint" />
            <mxPoint x="430" y="190" as="targetPoint" />
          </mxGeometry>
        </mxCell>
        <mxCell id="1aqzLkErPg4qFdTffWpp-8" value="" style="endArrow=classic;html=1;rounded=0;exitX=0.5;exitY=1;exitDx=0;exitDy=0;entryX=0.467;entryY=0.125;entryDx=0;entryDy=0;entryPerimeter=0;" edge="1" parent="1" source="1aqzLkErPg4qFdTffWpp-3" target="1aqzLkErPg4qFdTffWpp-4">
          <mxGeometry width="50" height="50" relative="1" as="geometry">
            <mxPoint x="390" y="280" as="sourcePoint" />
            <mxPoint x="440" y="230" as="targetPoint" />
          </mxGeometry>
        </mxCell>
        <mxCell id="1aqzLkErPg4qFdTffWpp-9" value="" style="endArrow=classic;html=1;rounded=0;exitX=0;exitY=0.5;exitDx=0;exitDy=0;entryX=0.25;entryY=1;entryDx=0;entryDy=0;" edge="1" parent="1" source="1aqzLkErPg4qFdTffWpp-4" target="1aqzLkErPg4qFdTffWpp-5">
          <mxGeometry width="50" height="50" relative="1" as="geometry">
            <mxPoint x="390" y="280" as="sourcePoint" />
            <mxPoint x="440" y="230" as="targetPoint" />
            <Array as="points">
              <mxPoint x="110" y="460" />
            </Array>
          </mxGeometry>
        </mxCell>
        <mxCell id="1aqzLkErPg4qFdTffWpp-10" value="" style="endArrow=classic;html=1;rounded=0;entryX=0;entryY=0.5;entryDx=0;entryDy=0;" edge="1" parent="1" target="1aqzLkErPg4qFdTffWpp-3">
          <mxGeometry width="50" height="50" relative="1" as="geometry">
            <mxPoint x="320" y="460" as="sourcePoint" />
            <mxPoint x="320" y="320" as="targetPoint" />
            <Array as="points">
              <mxPoint x="260" y="325" />
            </Array>
          </mxGeometry>
        </mxCell>
        <mxCell id="1aqzLkErPg4qFdTffWpp-11" value="NO" style="whiteSpace=wrap;html=1;" vertex="1" parent="1">
          <mxGeometry x="270" y="300" width="50" height="20" as="geometry" />
        </mxCell>
        <mxCell id="1aqzLkErPg4qFdTffWpp-12" value="YES" style="whiteSpace=wrap;html=1;" vertex="1" parent="1">
          <mxGeometry x="130" y="430" width="70" height="30" as="geometry" />
        </mxCell>
      </root>
    </mxGraphModel>
  </diagram>
</mxfile>
